<svg class="icon-rocket" width="34px" height="34px" viewBox="0 0 34 34" mlns="http://www.w3.org/2000/svg">
    <title>Rocket</title>
    <g id="Visual-Design" stroke="none" stroke-width="1" fill="none" fill-rule="evenodd">
        <g id="Overview-Selected" transform="translate(-15.000000, -487.000000)">
            <g id="Rocket" transform="translate(15.000000, 487.000000)">
                <path d="M33.9999815,16.9999815 C33.9999815,26.3889707 26.3887859,33.9999815 16.9999815,33.9999815 C7.61117717,33.9999815 -1.84782607e-05,26.3889707 -1.84782607e-05,16.9999815 C-1.84782607e-05,7.61099239 7.61117717,-1.84782609e-05 16.9999815,-1.84782609e-05 C26.3887859,-1.84782609e-05 33.9999815,7.61099239 33.9999815,16.9999815" id="Fill-1" fill="#000000"></path>
                <path d="M21.3297522,27.8180609 L20.9468826,26.7548217 L21.2587957,26.6358217 C21.2587957,26.6358217 21.10635,26.1827348 20.3093826,24.4284087 C19.5118609,22.6740826 18.8311217,21.5753652 18.6053174,21.1738326 C18.6391326,19.9226696 18.6267522,22.1286043 18.6176978,20.3801913 C18.5781543,13.2021261 18.5811109,13.2172783 17.0002957,5.4499413 L16.9984478,5.4499413 C16.9984478,5.4499413 15.362013,12.7331478 15.3823391,20.3801913 C15.3860348,22.1302674 15.3594261,19.9247022 15.3928717,21.1766043 C15.1626326,21.5875609 14.2413065,23.1861152 13.6370674,24.5113761 C13.0346761,25.8383 12.7434587,26.6358217 12.7434587,26.6358217 L13.0548174,26.7548217 L12.6702848,27.8180609 L11.9409478,28.5499848 L13.7429478,28.5499848 L13.2043065,28.0087565 L13.5847739,26.9580826 L13.9194152,27.0855826 C13.9194152,27.0855826 14.6020022,24.6523652 14.7997196,24.0165283 C14.9946652,23.379213 15.1269696,22.975463 15.2771978,22.53605 C15.3448283,22.3338978 15.3928717,22.2025174 15.4261326,22.117887 C15.549013,25.1165391 15.8021652,26.4527022 15.8021652,26.4527022 L16.356513,26.4536261 L16.356513,27.0039087 L16.7166543,27.0039087 L16.7166543,27.9296696 L16.098187,28.5499848 L17.9005565,28.5499848 L17.283937,27.9296696 L17.283937,27.0039087 L17.6420457,27.0039087 L17.6420457,26.4536261 L18.1965783,26.4527022 C18.1965783,26.4527022 18.4513935,25.1145065 18.5731652,22.1143761 C18.6069804,22.1978978 18.655763,22.3305717 18.7252413,22.53605 C18.8747304,22.9760174 19.0064804,23.379213 19.2021652,24.0165283 C19.3984043,24.6523652 20.0817304,27.0870609 20.0817304,27.0870609 L20.4176652,26.9580826 L20.7968391,28.0087565 L20.2581978,28.5499848 L22.0589043,28.5499848 L21.3297522,27.8180609 Z" id="Fill-4" fill="#FFFFFF"></path>
            </g>
        </g>
    </g>
</svg>